# File created by Blade
# Date/Time:  Fri Jan 16 19:00:32 2015
#---------------------------------------------------------
:version 1.10
:name HOM
:units
  mass 1.0
  length 1.000000
  angle deg
:documentation
     Acclaim Skeleton File
:root
   axis xyz
   order TX TY TZ RX RY RZ
   position 0.000000 0.000000 0.000000
   orientation 0 0 0
:bonedata
   begin
      id 1
      name Spine_dum
      direction 0.000000 1.000000 0.000000
      length 7.067664
      axis 0.0 0.0 0.0 xyz
   end
   begin
      id 2
      name LeftUpLeg_dum
      direction 1.000000 0.000000 0.000000
      length 4.013002
      axis 0.0 0.0 0.0 xyz
   end
   begin
      id 3
      name RightUpLeg_dum
      direction -1.000000 0.000000 0.000000
      length 4.013002
      axis 0.0 0.0 0.0 xyz
   end
   begin
      id 4
      name Spine
      direction 0.000000 1.000000 0.000000
      length 0.000000
      axis 0.0 0.0 0.0 xyz
      dof rx ry rz
   end
   begin
      id 5
      name Spine_dum1
      direction 0.000000 1.000000 0.000000
      length 15.039886
      axis 0.0 0.0 0.0 xyz
   end
   begin
      id 6
      name Spine_dum2
      direction 0.000000 1.000000 0.000000
      length 10.530368
      axis 0.0 0.0 0.0 xyz
   end
   begin
      id 7
      name Spine_dum3
      direction 0.000000 1.000000 0.000000
      length 10.530368
      axis 0.0 0.0 0.0 xyz
   end
   begin
      id 8
      name Head
      direction 0.000000 1.000000 0.000000
      length 4.527550
      axis 0.0 0.0 0.0 xyz
      dof rx ry rz
   end
   begin
      id 9
      name LeftShoulder
      direction 1.000000 0.000000 0.000000
      length 7.028855
      axis 0.0 0.0 -90.0 xyz
      dof rx ry rz
   end
   begin
      id 10
      name LeftArm
      direction 1.000000 0.000000 0.000000
      length 10.797705
      axis 0.0 0.0 -90.0 xyz
      dof rx ry rz
   end
   begin
      id 11
      name LeftForeArm
      direction 1.000000 0.000000 0.000000
      length 7.907442
      axis 0.0 0.0 -90.0 xyz
      dof ry rz rx
   end
   begin
      id 12
      name LeftHand
      direction 0.000000 0.000000 0.000000
      length 0.000000
      axis 0.0 0.0 -90.0 xyz
      dof rx ry rz
   end
   begin
      id 13
      name LeftHand_dum1
      direction 0.000000 0.000000 0.000000
      length 0.000000
      axis 0.0 0.0 -90.0 xyz
   end
   begin
      id 14
      name LeftHand_dum2
      direction 1.000000 0.000000 0.000000
      length 3.937000
      axis 0.0 0.0 -90.0 xyz
   end
   begin
      id 15
      name LeftHandThumb1
      direction 0.000000 0.000000 1.000000
      length 3.937000
      axis 0.0 0.0 -90.0 xyz
      dof rx rz ry
   end
   begin
      id 16
      name RightShoulder
      direction -1.000000 0.000000 0.000000
      length 7.028855
      axis 0.0 0.0 90.0 xyz
      dof rx ry rz
   end
   begin
      id 17
      name RightArm
      direction -1.000000 0.000000 0.000000
      length 10.797705
      axis 0.0 0.0 90.0 xyz
      dof rx ry rz
   end
   begin
      id 18
      name RightForeArm
      direction -1.000000 0.000000 0.000000
      length 7.907442
      axis 0.0 0.0 90.0 xyz
      dof ry rz rx
   end
   begin
      id 19
      name RightHand
      direction 0.000000 0.000000 0.000000
      length 0.000000
      axis 0.0 0.0 90.0 xyz
      dof rx ry rz
   end
   begin
      id 20
      name RightHand_dum1
      direction 0.000000 0.000000 0.000000
      length 0.000000
      axis 0.0 0.0 90.0 xyz
   end
   begin
      id 21
      name RightHand_dum2
      direction -1.000000 0.000000 0.000000
      length 3.937000
      axis 0.0 0.0 90.0 xyz
   end
   begin
      id 22
      name RightHandThumb1
      direction 0.000000 0.000000 1.000000
      length 3.937000
      axis 0.0 0.0 90.0 xyz
      dof rx rz ry
   end
   begin
      id 23
      name LeftUpLeg
      direction 0.000000 -1.000000 0.000000
      length 16.899758
      axis 0.0 0.0 0.0 xyz
      dof rx ry rz
   end
   begin
      id 24
      name LeftLeg
      direction 0.000000 -1.000000 0.000000
      length 17.389183
      axis 0.0 0.0 0.0 xyz
      dof rx ry rz
   end
   begin
      id 25
      name LeftFoot
      direction 0.000000 -0.258819 0.965926
      length 4.924528
      axis 15.0 0.0 0.0 xyz
      dof rx ry rz
   end
   begin
      id 26
      name LeftToeBase
      direction 0.000000 0.000000 1.000000
      length 2.952750
      axis 0.0 0.0 0.0 xyz
      dof rx ry rz
   end
   begin
      id 27
      name RightUpLeg
      direction 0.000000 -1.000000 0.000000
      length 16.899758
      axis 0.0 0.0 0.0 xyz
      dof rx ry rz
   end
   begin
      id 28
      name RightLeg
      direction 0.000000 -1.000000 0.000000
      length 17.389183
      axis 0.0 0.0 0.0 xyz
      dof rx ry rz
   end
   begin
      id 29
      name RightFoot
      direction 0.000000 -0.258819 0.965926
      length 4.924528
      axis 15.0 0.0 0.0 xyz
      dof rx ry rz
   end
   begin
      id 30
      name RightToeBase
      direction 0.000000 0.000000 1.000000
      length 2.952750
      axis 0.0 0.0 0.0 xyz
      dof rx ry rz
   end
:hierarchy
   begin
      root Spine_dum LeftUpLeg_dum RightUpLeg_dum
      Spine_dum Spine
      LeftUpLeg_dum LeftUpLeg
      RightUpLeg_dum RightUpLeg
      Spine Spine_dum1 Spine_dum2 Spine_dum3
      Spine_dum1 Head
      Spine_dum2 LeftShoulder
      Spine_dum3 RightShoulder
      LeftShoulder LeftArm
      LeftArm LeftForeArm
      LeftForeArm LeftHand
      LeftHand LeftHand_dum1 LeftHand_dum2
      LeftHand_dum1 LeftHandThumb1
      RightShoulder RightArm
      RightArm RightForeArm
      RightForeArm RightHand
      RightHand RightHand_dum1 RightHand_dum2
      RightHand_dum1 RightHandThumb1
      LeftUpLeg LeftLeg
      LeftLeg LeftFoot
      LeftFoot LeftToeBase
      RightUpLeg RightLeg
      RightLeg RightFoot
      RightFoot RightToeBase
   end

# File created by Blade
# Date/Time:  Fri Jan 16 19:00:24 2015
# Frame Rate: 120.000 fps
#------------------------------------------------------
:FULLY-SPECIFIED
:DEGREES
260
root 17.948073 35.806374 -20.918462 -189.378103 -6.116294 -178.059461
Spine 9.566150 -4.191220 -2.182902
Head 1.391777 -2.664369 5.329815
LeftShoulder -6.641234 -19.793427 -2.903424
LeftArm -9.698354 10.047755 -72.031923
LeftForeArm 0.696474 -0.000000 7.494076
LeftHand -1.718249 -0.000000 0.330639
LeftHandThumb1 -26.253704 0.000000 33.147579
RightShoulder -9.258770 -16.252135 13.377308
RightArm 12.153887 1.553825 67.868693
RightForeArm -27.274465 -0.000000 21.067678
RightHand -3.804908 -0.000000 3.143200
RightHandThumb1 -24.326973 -0.000000 -32.862282
LeftUpLeg 11.336834 9.252191 -5.206532
LeftLeg -3.153984 -0.000000 0.000000
LeftFoot -16.624427 21.877298 -10.189514
LeftToeBase 25.097590 -0.000000 -0.000000
RightUpLeg -79.332359 7.537017 12.082889
RightLeg 110.712818 -0.000000 -0.000000
RightFoot 19.629208 -37.382368 -8.091748
RightToeBase 27.635275 -0.000000 -0.000000
261
root 17.934075 35.822951 -20.926476 -189.477656 -6.374218 -177.927143
Spine 9.675010 -4.387254 -2.120603
Head 1.395864 -2.773315 5.381423
LeftShoulder -6.604168 -19.813775 -2.943476
LeftArm -9.939921 9.790777 -72.047659
LeftForeArm 0.594708 0.000000 7.529884
LeftHand -1.730275 -0.000000 0.223717
LeftHandThumb1 -26.253704 0.000000 33.147579
RightShoulder -9.295160 -16.225849 13.369952
RightArm 12.037967 1.664430 67.946449
RightForeArm -27.291935 -0.000000 21.136009
RightHand -3.830128 0.000000 3.108740
RightHandThumb1 -24.326973 -0.000000 -32.862282
LeftUpLeg 11.426361 9.368604 -5.016923
LeftLeg -3.111456 -0.000000 0.000000
LeftFoot -16.737027 21.384265 -10.410293
LeftToeBase 25.992264 -0.000000 -0.000000
RightUpLeg -80.300299 7.421105 12.265298
RightLeg 111.150636 -0.000000 -0.000000
RightFoot 19.530462 -37.357767 -7.822282
RightToeBase 27.338195 -0.000000 -0.000000
262
root 17.916827 35.840584 -20.934726 -189.596779 -6.622478 -177.804654
Spine 9.810709 -4.583258 -2.066935
Head 1.387600 -2.858045 5.441872
LeftShoulder -6.607880 -19.798843 -2.986753
LeftArm -10.095523 9.606447 -72.062875
LeftForeArm 0.565125 0.000000 7.482599
LeftHand -1.772492 -0.000000 0.452861
LeftHandThumb1 -26.253704 0.000000 33.147579
RightShoulder -9.292728 -16.189884 13.344735
RightArm 11.903065 1.813610 68.031974
RightForeArm -27.319575 0.000000 21.199244
RightHand -3.800416 -0.000000 3.088758
RightHandThumb1 -24.326973 -0.000000 -32.862282
LeftUpLeg 11.531254 9.523248 -4.834022
LeftLeg -3.054091 -0.000000 0.000000
LeftFoot -16.850119 20.896891 -10.618704
LeftToeBase 26.933040 -0.000000 -0.000000
RightUpLeg -81.196595 7.256681 12.449223
RightLeg 111.557916 -0.000000 -0.000000
RightFoot 19.532445 -37.202183 -7.951436
RightToeBase 27.448643 -0.000000 -0.000000
263
root 17.908117 35.859022 -20.944320 -189.728178 -6.838170 -177.657109
Spine 9.959322 -4.742362 -2.003829
Head 1.373683 -2.939411 5.482229
LeftShoulder -6.635475 -19.784695 -3.011863
LeftArm -10.234001 9.472796 -72.071160
LeftForeArm 0.383880 -0.000000 7.491170
LeftHand -1.764769 -0.000000 0.265867
LeftHandThumb1 -26.253704 0.000000 33.147579
RightShoulder -9.253574 -16.111875 13.352772
RightArm 11.699786 1.969998 68.085112
RightForeArm -27.364344 -0.000000 21.345487
RightHand -3.820395 -0.000000 3.056643
RightHandThumb1 -24.326973 -0.000000 -32.862282
LeftUpLeg 11.641294 9.674036 -4.611951
LeftLeg -2.989658 -0.000000 0.000000
LeftFoot -16.995078 20.415611 -10.825182
LeftToeBase 27.831513 -0.000000 -0.000000
RightUpLeg -82.005865 7.178654 12.636973
RightLeg 111.905217 -0.000000 -0.000000
RightFoot 19.591444 -36.980823 -8.194096
RightToeBase 27.589191 -0.000000 -0.000000
264
root 17.897486 35.876005 -20.954862 -189.832959 -7.072866 -177.525123
Spine 10.059961 -4.837980 -1.947993
Head 1.371491 -3.086701 5.564111
LeftShoulder -6.566051 -19.780790 -3.045815
LeftArm -10.422764 9.302992 -72.097265
LeftForeArm 0.323300 -0.000000 7.470139
LeftHand -1.772395 -0.000000 0.631023
LeftHandThumb1 -26.253704 0.000000 33.147579
RightShoulder -9.309359 -16.065965 13.374314
RightArm 11.538722 2.145958 68.160261
RightForeArm -27.408886 0.000000 21.456244
RightHand -3.731471 -0.000000 3.042260
RightHandThumb1 -24.326973 -0.000000 -32.862282
LeftUpLeg 11.725223 9.789140 -4.422677
LeftLeg -2.926367 -0.000000 0.000000
LeftFoot -17.095216 19.946313 -11.020190
LeftToeBase 28.654869 -0.000000 -0.000000
RightUpLeg -82.824506 7.072135 12.777077
RightLeg 112.244699 -0.000000 -0.000000
RightFoot 19.681289 -36.805491 -8.297381
RightToeBase 27.614179 -0.000000 -0.000000
265
root 17.886262 35.894614 -20.965881 -189.972899 -7.284572 -177.377188
Spine 10.209225 -4.973362 -1.877037
Head 1.375164 -3.174529 5.651730
LeftShoulder -6.578269 -19.804813 -3.072093
LeftArm -10.608466 9.121366 -72.121578
LeftForeArm 0.328654 0.000000 7.493766
LeftHand -1.909145 -0.000000 0.612531
LeftHandThumb1 -26.253704 0.000000 33.147579
RightShoulder -9.313183 -16.069797 13.399257
RightArm 11.456859 2.364400 68.213376
RightForeArm -27.476488 0.000000 21.560299
RightHand -3.708165 -0.000000 3.080728
RightHandThumb1 -24.326973 -0.000000 -32.862282
LeftUpLeg 11.873505 9.871064 -4.216532
LeftLeg -2.913217 -0.000000 0.000000
LeftFoot -17.198272 19.511708 -11.196155
LeftToeBase 29.766695 -0.000000 -0.000000
RightUpLeg -83.545965 6.964057 12.924054
RightLeg 112.545374 -0.000000 -0.000000
RightFoot 19.815054 -36.700056 -8.404299
RightToeBase 27.478970 -0.000000 -0.000000
266
root 17.875181 35.911176 -20.976108 -190.107995 -7.474662 -177.248859
Spine 10.349468 -5.095508 -1.825443
Head 1.378606 -3.236791 5.729043
LeftShoulder -6.626137 -19.804624 -3.092682
LeftArm -10.726469 9.087074 -72.140712
LeftForeArm 0.328021 0.000000 7.444043
LeftHand -1.771174 -0.000000 0.409882
LeftHandThumb1 -26.253704 0.000000 33.147579
RightShoulder -9.249327 -16.095005 13.398499
RightArm 11.357119 2.557910 68.273452
RightForeArm -27.484602 -0.000000 21.677855
RightHand -3.732016 -0.000000 3.037149
RightHandThumb1 -24.326973 -0.000000 -32.862282
LeftUpLeg 12.019198 9.956493 -4.035650
LeftLeg -2.920800 -0.000000 0.000000
LeftFoot -17.301518 19.127801 -11.427600
LeftToeBase 30.663602 -0.000000 -0.000000
RightUpLeg -84.214943 6.867236 13.052263
RightLeg 112.797772 -0.000000 -0.000000
RightFoot 19.881943 -36.559647 -8.588652
RightToeBase 27.901689 -0.000000 -0.000000
267
root 17.865826 35.926394 -20.988795 -190.218360 -7.654520 -177.105422
Spine 10.438196 -5.151087 -1.749626
Head 1.385373 -3.340864 5.805221
LeftShoulder -6.641845 -19.779940 -3.103943
LeftArm -10.841214 8.987114 -72.171884
LeftForeArm 0.231896 -0.000000 7.451814
LeftHand -1.725213 -0.000000 0.138015
LeftHandThumb1 -26.253704 0.000000 33.147579
RightShoulder -9.265104 -16.049094 13.412028
RightArm 11.212906 2.629987 68.293412
RightForeArm -27.416277 -0.000000 21.774098
RightHand -3.767748 -0.000000 3.044442
RightHandThumb1 -24.326973 -0.000000 -32.862282
LeftUpLeg 12.145000 9.997816 -3.853275
LeftLeg -2.936439 -0.000000 0.000000
LeftFoot -17.355964 18.815619 -11.583708
LeftToeBase 30.987448 -0.000000 -0.000000
RightUpLeg -84.851169 6.787087 13.183815
RightLeg 113.047374 -0.000000 -0.000000
RightFoot 19.978751 -36.544220 -8.645288
RightToeBase 27.694644 -0.000000 -0.000000
268
root 17.857678 35.941379 -21.001621 -190.360322 -7.812907 -176.951435
Spine 10.562893 -5.175105 -1.651513
Head 1.387094 -3.462955 5.877715
LeftShoulder -6.627973 -19.804142 -3.122743
LeftArm -10.999576 8.918628 -72.207635
LeftForeArm 0.177869 -0.000000 7.442603
LeftHand -1.739921 -0.000000 0.452605
LeftHandThumb1 -26.253704 0.000000 33.147579
RightShoulder -9.274802 -16.022830 13.420215
RightArm 11.095072 2.765255 68.332511
RightForeArm -27.400811 -0.000000 21.865675
RightHand -3.742454 -0.000000 3.039701
RightHandThumb1 -24.326973 -0.000000 -32.862282
LeftUpLeg 12.277121 10.069604 -3.649568
LeftLeg -2.897681 -0.000000 0.000000
LeftFoot -17.420984 18.476937 -11.680033
LeftToeBase 31.691922 -0.000000 -0.000000
RightUpLeg -85.399989 6.733476 13.298832
RightLeg 113.270284 -0.000000 -0.000000
RightFoot 19.990073 -36.451846 -8.582108
RightToeBase 27.534377 -0.000000 -0.000000
